<svg width="24" height="24" viewBox="0 0 24 24" fill="none" xmlns="http://www.w3.org/2000/svg"><path d="M3.32697 10.888C8.51026 8.63021 11.9658 7.14161 13.6936 6.42245C18.6324 4.36885 19.6574 4.01219 20.3268 4.00011C20.4741 3.99774 20.8018 4.03413 21.0157 4.20705C21.1935 4.35288 21.2435 4.5501 21.2685 4.68857C21.2907 4.8269 21.3213 5.14218 21.2963 5.38829C21.0296 8.19938 19.8713 15.021 19.2824 18.1696C19.0352 19.5018 18.5435 19.9485 18.0685 19.9921C17.0352 20.0871 16.2519 19.3099 15.2519 18.6546C13.688 17.6288 12.8047 16.9904 11.2852 15.9896C9.5297 14.8329 10.6686 14.1971 11.6686 13.1582C11.9297 12.8863 16.4796 8.74882 16.5658 8.37355C16.5769 8.3266 16.588 8.1516 16.4824 8.05938C16.3797 7.96688 16.2269 7.99855 16.1158 8.02355C15.9574 8.0591 13.4602 9.71131 8.61582 12.9799C7.90749 13.4671 7.26583 13.7046 6.68806 13.6921C6.05473 13.6785 4.83251 13.3332 3.92419 13.0382C2.81308 12.6763 1.92698 12.4849 2.00476 11.8702C2.04365 11.5502 2.48531 11.2227 3.32697 10.888Z" fill="currentColor"/></svg>